<svg xmlns="http://www.w3.org/2000/svg" width="776" height="420" viewBox="0 0 776 420">
  <style>
    text { font-family: -apple-system, BlinkMacSystemFont, "Segoe UI", Helvetica, Arial, sans-serif; }
    .title { font-size: 15px; font-weight: 600; fill: #24292f; }
    .axis-label { font-size: 11px; fill: #57606a; }
    .legend-text { font-size: 12px; fill: #24292f; }
    .grid { stroke: #d0d7de; stroke-width: 0.5; }
    .baseline { stroke: #8c959f; stroke-width: 1; stroke-dasharray: 4 3; }
    .noise-band { fill: #b1bac4; opacity: 0.18; }
    .footnote { font-size: 11px; fill: #57606a; }
  </style>
  <rect width="100%" height="100%" fill="white"/>
  <rect x="56" y="124.0" width="560" height="160.0" class="noise-band"/>
  <text x="336.0" y="26" text-anchor="middle" class="title">JSON encode — throughput vs each message’s first release (%)</text>
  <line x1="56" y1="364.0" x2="616" y2="364.0" class="grid"/>
  <text x="48" y="368.0" text-anchor="end" class="axis-label">90%</text>
  <line x1="56" y1="284.0" x2="616" y2="284.0" class="grid"/>
  <text x="48" y="288.0" text-anchor="end" class="axis-label">95%</text>
  <line x1="56" y1="204.0" x2="616" y2="204.0" class="grid"/>
  <text x="48" y="208.0" text-anchor="end" class="axis-label">100%</text>
  <line x1="56" y1="124.0" x2="616" y2="124.0" class="grid"/>
  <text x="48" y="128.0" text-anchor="end" class="axis-label">105%</text>
  <line x1="56" y1="44.0" x2="616" y2="44.0" class="grid"/>
  <text x="48" y="48.0" text-anchor="end" class="axis-label">110%</text>
  <line x1="56" y1="204.0" x2="616" y2="204.0" class="baseline"/>
  <text x="56.0" y="382" text-anchor="middle" class="axis-label">v0.1.0</text>
  <text x="136.0" y="382" text-anchor="middle" class="axis-label">v0.2.0</text>
  <text x="216.0" y="382" text-anchor="middle" class="axis-label">v0.3.0</text>
  <text x="296.0" y="382" text-anchor="middle" class="axis-label">v0.4.0</text>
  <text x="376.0" y="382" text-anchor="middle" class="axis-label">v0.5.0</text>
  <text x="456.0" y="382" text-anchor="middle" class="axis-label">v0.6.0</text>
  <text x="536.0" y="382" text-anchor="middle" class="axis-label">v0.7.0</text>
  <text x="616.0" y="382" text-anchor="middle" class="axis-label">v0.7.1</text>
  <path d="M56.0,204.0 L136.0,233.2 L216.0,229.5 L296.0,204.2 L376.0,208.1 L456.0,199.0 L536.0,221.8 L616.0,197.3" fill="none" stroke="#4C78A8" stroke-width="2"/>
  <circle cx="56.0" cy="204.0" r="3" fill="#4C78A8"/>
  <circle cx="136.0" cy="233.2" r="3" fill="#4C78A8"/>
  <circle cx="216.0" cy="229.5" r="3" fill="#4C78A8"/>
  <circle cx="296.0" cy="204.2" r="3" fill="#4C78A8"/>
  <circle cx="376.0" cy="208.1" r="3" fill="#4C78A8"/>
  <circle cx="456.0" cy="199.0" r="3" fill="#4C78A8"/>
  <circle cx="536.0" cy="221.8" r="3" fill="#4C78A8"/>
  <circle cx="616.0" cy="197.3" r="3" fill="#4C78A8"/>
  <path d="M56.0,204.0 L136.0,185.8 L216.0,189.7 L296.0,198.4 L376.0,184.7 L456.0,193.2 L536.0,188.2 L616.0,194.2" fill="none" stroke="#F58518" stroke-width="2"/>
  <circle cx="56.0" cy="204.0" r="3" fill="#F58518"/>
  <circle cx="136.0" cy="185.8" r="3" fill="#F58518"/>
  <circle cx="216.0" cy="189.7" r="3" fill="#F58518"/>
  <circle cx="296.0" cy="198.4" r="3" fill="#F58518"/>
  <circle cx="376.0" cy="184.7" r="3" fill="#F58518"/>
  <circle cx="456.0" cy="193.2" r="3" fill="#F58518"/>
  <circle cx="536.0" cy="188.2" r="3" fill="#F58518"/>
  <circle cx="616.0" cy="194.2" r="3" fill="#F58518"/>
  <path d="M56.0,204.0 L136.0,239.2 L216.0,214.9 L296.0,214.8 L376.0,200.3 L456.0,211.9 L536.0,212.0 L616.0,201.7" fill="none" stroke="#54A24B" stroke-width="2"/>
  <circle cx="56.0" cy="204.0" r="3" fill="#54A24B"/>
  <circle cx="136.0" cy="239.2" r="3" fill="#54A24B"/>
  <circle cx="216.0" cy="214.9" r="3" fill="#54A24B"/>
  <circle cx="296.0" cy="214.8" r="3" fill="#54A24B"/>
  <circle cx="376.0" cy="200.3" r="3" fill="#54A24B"/>
  <circle cx="456.0" cy="211.9" r="3" fill="#54A24B"/>
  <circle cx="536.0" cy="212.0" r="3" fill="#54A24B"/>
  <circle cx="616.0" cy="201.7" r="3" fill="#54A24B"/>
  <path d="M56.0,204.0 L136.0,196.0 L216.0,173.2 L296.0,179.7 L376.0,174.8 L456.0,213.1 L536.0,187.4 L616.0,184.9" fill="none" stroke="#E45756" stroke-width="2"/>
  <circle cx="56.0" cy="204.0" r="3" fill="#E45756"/>
  <circle cx="136.0" cy="196.0" r="3" fill="#E45756"/>
  <circle cx="216.0" cy="173.2" r="3" fill="#E45756"/>
  <circle cx="296.0" cy="179.7" r="3" fill="#E45756"/>
  <circle cx="376.0" cy="174.8" r="3" fill="#E45756"/>
  <circle cx="456.0" cy="213.1" r="3" fill="#E45756"/>
  <circle cx="536.0" cy="187.4" r="3" fill="#E45756"/>
  <circle cx="616.0" cy="184.9" r="3" fill="#E45756"/>
  <path d="M56.0,204.0 L136.0,121.3 L216.0,171.4 L296.0,174.9 L376.0,165.9 L456.0,172.4 L536.0,177.9 L616.0,163.7" fill="none" stroke="#72B7B2" stroke-width="2"/>
  <circle cx="56.0" cy="204.0" r="3" fill="#72B7B2"/>
  <circle cx="136.0" cy="121.3" r="3" fill="#72B7B2"/>
  <circle cx="216.0" cy="171.4" r="3" fill="#72B7B2"/>
  <circle cx="296.0" cy="174.9" r="3" fill="#72B7B2"/>
  <circle cx="376.0" cy="165.9" r="3" fill="#72B7B2"/>
  <circle cx="456.0" cy="172.4" r="3" fill="#72B7B2"/>
  <circle cx="536.0" cy="177.9" r="3" fill="#72B7B2"/>
  <circle cx="616.0" cy="163.7" r="3" fill="#72B7B2"/>
  <path d="M56.0,204.0 L136.0,205.7 L216.0,210.3 L296.0,268.5 L376.0,257.0 L456.0,268.0 L536.0,264.5 L616.0,257.3" fill="none" stroke="#B279A2" stroke-width="2"/>
  <circle cx="56.0" cy="204.0" r="3" fill="#B279A2"/>
  <circle cx="136.0" cy="205.7" r="3" fill="#B279A2"/>
  <circle cx="216.0" cy="210.3" r="3" fill="#B279A2"/>
  <circle cx="296.0" cy="268.5" r="3" fill="#B279A2"/>
  <circle cx="376.0" cy="257.0" r="3" fill="#B279A2"/>
  <circle cx="456.0" cy="268.0" r="3" fill="#B279A2"/>
  <circle cx="536.0" cy="264.5" r="3" fill="#B279A2"/>
  <circle cx="616.0" cy="257.3" r="3" fill="#B279A2"/>
  <rect x="632" y="50" width="12" height="12" rx="2" fill="#4C78A8"/>
  <text x="650" y="61" class="legend-text">ApiResponse</text>
  <rect x="632" y="72" width="12" height="12" rx="2" fill="#F58518"/>
  <text x="650" y="83" class="legend-text">LogRecord</text>
  <rect x="632" y="94" width="12" height="12" rx="2" fill="#54A24B"/>
  <text x="650" y="105" class="legend-text">AnalyticsEvent</text>
  <rect x="632" y="116" width="12" height="12" rx="2" fill="#E45756"/>
  <text x="650" y="127" class="legend-text">GoogleMessage1</text>
  <rect x="632" y="138" width="12" height="12" rx="2" fill="#72B7B2"/>
  <text x="650" y="149" class="legend-text">MediaFrame</text>
  <rect x="632" y="160" width="12" height="12" rx="2" fill="#B279A2"/>
  <text x="650" y="171" class="legend-text">PackedTile</text>
  <text x="56" y="406.0" class="footnote">Shaded band: ±5% run-to-run noise floor — a line staying inside it moved by less than the noise floor.</text>
</svg>
